<?xml version="1.0" encoding="UTF-8"?>
<svg xmlns="http://www.w3.org/2000/svg" version="1.1" viewBox="0 0 108.8 107.9">
  <defs>
    <style>
      .cls-1 {
        fill: #fe0300;
        stroke: #000;
        stroke-miterlimit: 10;
        stroke-width: .9px;
      }

      .cls-2 {
        fill: #fff;
      }
    </style>
  </defs>
  <!-- Generator: Adobe Illustrator 28.7.1, SVG Export Plug-In . SVG Version: 1.2.0 Build 142)  -->
  <g>
    <g id="Layer_1">
      <path class="cls-1" d="M91.5,27.5v-5.9h-5.5v-5.9h-22.3v5.9h-5.5v5.9h-5.3v-5.9h-5.5v-5.9h-22.3v5.9h-5.5v5.9h-5.5v22.6h5.5v11.8h5.5v5.9h5.5v5.9h5.5v5.9h5.5v-.5l.4.5h-.4v5.9h5.5v5.9h5.5v5.9h5.8v-5.9h5.5v-5.9h5.5v-5.9h-.4l.4-.5v.5h5.5v-5.9h5.5v-5.9h5.5v-5.9h5.5v-11.8h5.5v-22.6h-5.5Z"/>
      <path class="cls-2" d="M27.4,34.9v20.4h6.7v-20.4h-6.7Z"/>
      <path class="cls-2" d="M34.1,28.1h6.7v6.8h-6.7v-6.8Z"/>
    </g>
  </g>
</svg>